<svg width="20" height="14" viewBox="0 0 20 14" fill="none" xmlns="http://www.w3.org/2000/svg">
<path d="M0 0V14H20V0H0ZM5 12C5 11.2044 4.68393 10.4413 4.12132 9.87868C3.55871 9.31607 2.79565 9 2 9V5C2.79565 5 3.55871 4.68393 4.12132 4.12132C4.68393 3.55871 5 2.79565 5 2H15C15 2.79565 15.3161 3.55871 15.8787 4.12132C16.4413 4.68393 17.2044 5 18 5V9C17.2044 9 16.4413 9.31607 15.8787 9.87868C15.3161 10.4413 15 11.2044 15 12H5ZM10 4C11.1 4 12 5.3 12 7C12 8.7 11.1 10 10 10C8.9 10 8 8.7 8 7C8 5.3 8.9 4 10 4Z" fill="black"/>
</svg>
