<svg width="76" height="76" viewBox="0 0 76 76" fill="none" xmlns="http://www.w3.org/2000/svg">
<path d="M72.3648 22.111L68.3239 23.9823C70.4626 28.6004 71.5471 33.3167 71.5471 38C71.5471 56.4978 56.498 71.5469 38.0002 71.5469C31.2506 71.5469 24.7443 69.4688 19.0673 65.5209C19.9469 63.1475 19.4367 60.3713 17.5327 58.4673C14.9284 55.863 10.6905 55.8631 8.08618 58.4673C5.48169 61.0717 5.48169 65.3094 8.08618 67.9139C10.2767 70.1045 13.6318 70.4576 16.198 68.9477C22.6997 73.5668 30.2005 76 38.0002 76C58.9238 76 76.0002 58.9224 76.0002 38C76.0002 32.6656 74.7771 27.3198 72.3648 22.111ZM14.3839 64.7652C13.5157 65.6334 12.1035 65.6336 11.235 64.7652C10.3668 63.897 10.3668 62.4845 11.235 61.6164C12.1029 60.7484 13.5156 60.7481 14.3839 61.6164C15.2521 62.4843 15.2521 63.897 14.3839 64.7652Z" fill="#FF6600"/>
<path d="M49.1328 29.0938V22.4141H53.5859V17.9609H22.4141V22.4141H26.8672V29.0938C26.8672 32.7317 28.6214 35.9671 31.328 38C28.6214 40.0329 26.8672 43.2683 26.8672 46.9062V53.5859H22.4141V58.0391H53.5859V53.5859H49.1328V46.9062C49.1328 43.2683 47.3786 40.0329 44.672 38C47.3786 35.9671 49.1328 32.7317 49.1328 29.0938ZM44.6797 46.9062V53.5859H31.3203V46.9062C31.3203 43.2231 34.3168 40.2266 38 40.2266C41.6832 40.2266 44.6797 43.2231 44.6797 46.9062ZM44.6797 29.0938C44.6797 32.7769 41.6832 35.7734 38 35.7734C34.3168 35.7734 31.3203 32.7769 31.3203 29.0938V22.4141H44.6797V29.0938Z" fill="#FF6600"/>
<path d="M58.4675 17.5327C61.0716 20.1369 65.3095 20.137 67.914 17.5327C70.5185 14.9284 70.5185 10.6905 67.914 8.08613C65.7185 5.89059 62.3622 5.54592 59.8022 7.05227C53.3005 2.43319 45.7996 0 38 0C17.0764 0 0 17.0776 0 38C0 43.3344 1.22312 48.6802 3.63538 53.889L7.6763 52.0177C5.53761 47.3997 4.45312 42.6834 4.45312 38C4.45312 19.5022 19.5022 4.45312 38 4.45312C44.7496 4.45312 51.2559 6.53125 56.9329 10.4791C56.0533 12.8525 56.5634 15.6287 58.4675 17.5327ZM61.6163 11.2349C62.4845 10.3669 63.8969 10.3667 64.7652 11.2349C65.6334 12.1031 65.6334 13.5157 64.7652 14.3837C63.897 15.252 62.4845 15.2521 61.6163 14.3837C60.748 13.5157 60.748 12.103 61.6163 11.2349Z" fill="#FF6600"/>
</svg>
