<svg width="78" height="70" viewBox="0 0 78 70" fill="none" xmlns="http://www.w3.org/2000/svg">
<path d="M75.8333 30.625H71.8383C70.6466 27.8906 68.9132 25.4707 66.7735 23.4473L69.333 13.125H64.9995C61.0181 13.125 57.4971 14.9707 55.1137 17.8145C54.0845 17.6641 53.0688 17.5 51.999 17.5H34.665C24.1833 17.5 15.4486 25.0195 13.4308 35H7.58058C5.57633 35 3.99189 33.1543 4.39816 31.0625C4.69609 29.5039 6.1451 28.4375 7.716 28.4375H7.85142C8.29831 28.4375 8.66395 28.0684 8.66395 27.6172V24.8828C8.66395 24.4316 8.29831 24.0625 7.85142 24.0625C3.99189 24.0625 0.552177 26.8516 0.0646581 30.707C-0.531199 35.3828 3.07103 39.375 7.58058 39.375H12.9975C12.9975 46.5117 16.4372 52.7871 21.6645 56.7793V67.8125C21.6645 69.0156 22.6395 70 23.8312 70H32.4982C33.6899 70 34.665 69.0156 34.665 67.8125V61.25H51.999V67.8125C51.999 69.0156 52.974 70 54.1657 70H62.8327C64.0245 70 64.9995 69.0156 64.9995 67.8125V56.7793C66.5975 55.5625 68.0194 54.127 69.2382 52.5H75.8333C77.025 52.5 78 51.5156 78 50.3125V32.8125C78 31.6094 77.025 30.625 75.8333 30.625ZM58.4992 39.375C57.3075 39.375 56.3325 38.3906 56.3325 37.1875C56.3325 35.9844 57.3075 35 58.4992 35C59.6909 35 60.666 35.9844 60.666 37.1875C60.666 38.3906 59.6909 39.375 58.4992 39.375ZM34.665 13.125H51.999C52.7303 13.125 53.448 13.1797 54.1522 13.2344C54.1522 13.1934 54.1657 13.166 54.1657 13.125C54.1657 5.87891 48.3426 0 41.1652 0C33.9879 0 28.1647 5.87891 28.1647 13.125C28.1647 13.4121 28.2324 13.6855 28.246 13.9727C30.3044 13.4395 32.444 13.125 34.665 13.125Z" fill="#FF6600"/>
</svg>
