<svg width="185" height="43" viewBox="0 0 185 43" fill="none" xmlns="http://www.w3.org/2000/svg">
<path d="M80.2385 4.82481C80.4636 4.82481 81.1622 4.82481 82.3386 4.82481C83.515 4.82481 84.8205 4.82481 86.2635 4.82481C87.702 4.82481 88.9566 4.82481 90.0276 4.82481C91.0937 4.82481 91.6821 4.82481 91.7923 4.82481C91.8154 4.6915 91.8841 4.40671 91.9853 3.97923C92.0865 3.5472 92.2013 3.07852 92.3301 2.56833C92.454 2.06268 92.5597 1.61702 92.6518 1.23559C92.7391 0.854156 92.7851 0.66571 92.7851 0.66571C92.537 0.66571 91.742 0.66571 90.4044 0.66571C89.0672 0.66571 87.5826 0.66571 85.9512 0.66571C84.3242 0.66571 82.9042 0.66571 81.6909 0.66571C80.4823 0.66571 79.8113 0.66571 79.6871 0.66571C79.6686 0.66571 79.655 0.66571 79.6456 0.66571C77.8487 0.66571 76.5711 1.64459 75.8079 3.5978C75.7713 3.74474 75.6976 4.0483 75.5873 4.5079C75.4725 4.97204 75.3577 5.44558 75.2335 5.9279C75.1141 6.41507 75.0266 6.75984 74.9714 6.96646C74.9529 7.04917 74.9439 7.08583 74.9439 7.08583C74.9439 7.10431 74.9439 7.11795 74.9439 7.12734C74.6588 8.38646 74.8842 9.47592 75.6195 10.3997C76.3457 11.3234 77.32 11.7875 78.5425 11.7875C78.6849 11.7875 79.0939 11.7875 79.7649 11.7875C80.4405 11.7875 81.1849 11.7875 82.0029 11.7875C82.8164 11.7875 83.5287 11.7875 84.1355 11.7875C84.742 11.7875 85.0774 11.7875 85.1374 11.7875C85.1559 11.7875 85.1695 11.7875 85.1789 11.7875C85.1789 11.7875 85.1744 11.7875 85.165 11.7875C85.3259 11.7875 85.4592 11.8518 85.5558 11.9896C85.6567 12.1229 85.6706 12.2702 85.6109 12.4307C85.5925 12.5044 85.5603 12.6331 85.5143 12.8167C85.4682 13.0006 85.4222 13.1981 85.3719 13.4142C85.3258 13.6302 85.2801 13.8186 85.2386 13.9795C85.1971 14.1404 85.1789 14.2231 85.1789 14.2231C85.0823 14.4851 84.9032 14.6136 84.6551 14.6136C84.43 14.6136 83.7313 14.6136 82.5546 14.6136C81.3782 14.6136 80.0682 14.6136 78.6297 14.6136C77.1867 14.6136 75.9367 14.6136 74.8702 14.6136C73.8086 14.6136 73.2203 14.6136 73.1146 14.6136C73.087 14.7469 73.0225 15.032 72.9216 15.4686C72.8158 15.9051 72.701 16.3787 72.5768 16.8979C72.4529 17.4127 72.3423 17.8632 72.255 18.2492C72.1629 18.6351 72.1172 18.8281 72.1172 18.8281C72.3699 18.8281 73.1603 18.8281 74.4933 18.8281C75.8261 18.8281 77.3106 18.8281 78.9466 18.8281C80.5781 18.8281 81.9984 18.8281 83.2069 18.8281C84.4157 18.8281 85.082 18.8281 85.2062 18.8281C85.2247 18.8281 85.2383 18.8281 85.2477 18.8281C86.1808 18.8281 86.9988 18.5479 87.6971 17.9916C88.3958 17.4263 88.869 16.7001 89.1081 15.8133C89.1265 15.7031 89.1817 15.4734 89.2735 15.1102C89.3607 14.7517 89.4574 14.3609 89.5631 13.938C89.6643 13.5199 89.7561 13.1521 89.8297 12.8443C89.9079 12.5319 89.9445 12.3707 89.9445 12.3526C89.9536 12.3341 89.9585 12.3205 89.9585 12.3114C90.2387 11.0795 90.0136 9.99489 89.2874 9.05267C88.5567 8.10137 87.5869 7.62329 86.3783 7.62329C86.2266 7.62329 85.813 7.62329 85.1374 7.62329C84.4663 7.62329 83.7219 7.62329 82.9039 7.62329C82.0859 7.62329 81.3782 7.62329 80.7808 7.62329C80.1879 7.62329 79.857 7.62329 79.7928 7.62329C79.6319 7.62329 79.5032 7.56361 79.4023 7.43485C79.3056 7.31093 79.269 7.16369 79.2965 6.99373C79.315 6.92011 79.3426 6.79135 79.3883 6.60775C79.4344 6.42385 79.4804 6.22632 79.5307 6.01031C79.5813 5.79429 79.6274 5.60585 79.664 5.44498C79.7055 5.2841 79.7286 5.20139 79.7286 5.20139C79.7607 5.10475 79.8252 5.01295 79.9125 4.93478C80.0043 4.86116 80.11 4.82451 80.2388 4.82451L80.2385 4.82481Z" fill="#0F47A4"/>
<path d="M97.7181 0.66571C95.8386 0.66571 94.5425 1.66762 93.8257 3.66688C93.7429 4.00711 93.5176 4.94902 93.141 6.49353C92.7641 8.03775 92.3414 9.76101 91.8815 11.6591C91.4174 13.5572 91.0129 15.2256 90.6591 16.6686C90.3097 18.1071 90.1353 18.8287 90.1353 18.8287C90.264 18.8287 90.5582 18.8287 91.0314 18.8287C91.5049 18.8287 92.0148 18.8287 92.5711 18.8287C93.1319 18.8287 93.6145 18.8287 94.0186 18.8287C94.4276 18.8287 94.6528 18.8287 94.6852 18.8287C94.7218 18.6954 94.8139 18.3186 94.9609 17.6981C95.1127 17.0776 95.2732 16.3884 95.4526 15.6255C95.6271 14.9041 95.7743 14.2834 95.8982 13.7504C96.0225 13.2221 96.0912 12.9461 96.1006 12.9185C96.1006 12.9091 96.1006 12.9091 96.1006 12.9185C96.0915 12.9185 96.0867 12.9231 96.0867 12.9321L105.513 12.9736C106.446 12.9736 107.273 12.6886 107.99 12.1235C108.707 11.5582 109.176 10.8414 109.392 9.96794C109.534 9.35656 109.695 8.69943 109.87 7.9917C110.044 7.27913 110.196 6.65896 110.325 6.12574C110.458 5.59282 110.522 5.32137 110.522 5.32137C110.789 4.09436 110.531 3.01429 109.741 2.07691C108.96 1.13469 107.93 0.666014 106.657 0.666014H97.7181V0.66571ZM97.3276 8.74517C97.5576 7.72933 97.7412 6.93435 97.8654 6.35993C98.0354 5.63372 98.1229 5.27077 98.1229 5.27077C98.155 5.13292 98.2286 5.02719 98.3344 4.94448C98.4447 4.86631 98.5504 4.82511 98.6607 4.82511C98.8216 4.82511 99.2627 4.82511 99.9798 4.82511C100.697 4.82511 101.492 4.82511 102.36 4.82511C103.233 4.82511 103.987 4.82511 104.631 4.82511C105.274 4.82511 105.623 4.82511 105.688 4.82511C105.858 4.82511 105.995 4.88934 106.106 5.01356C106.211 5.13747 106.253 5.28925 106.225 5.45922C105.724 7.3988 105.471 8.36828 105.471 8.36828C105.384 8.61641 105.2 8.74517 104.92 8.74517H97.3276V8.74517Z" fill="#0F47A4"/>
<path d="M110.296 14.1685L112.828 3.66688C113.554 1.66762 114.855 0.66571 116.721 0.66571H129.203L128.205 4.82481H120.935H117.433C117.336 4.82481 117.231 4.86631 117.125 4.94418C117.006 5.02689 116.927 5.13262 116.881 5.27047L116.302 7.6648H123.642L122.686 11.8287H115.305L114.768 14.0346C114.74 14.2046 114.781 14.3515 114.887 14.4803C114.988 14.6042 115.122 14.6687 115.291 14.6687L125.807 14.6824C125.513 15.9463 125.182 17.3297 124.814 18.8278H114.134C112.86 18.8278 111.836 18.3543 111.064 17.4124C110.287 16.4793 110.03 15.3995 110.296 14.1676L110.296 14.1685Z" fill="#0F47A4"/>
<path d="M127.781 14.1685L130.314 3.66688C131.04 1.66762 132.341 0.66571 134.206 0.66571H146.689L145.691 4.82481H138.421H134.919C134.822 4.82481 134.717 4.86631 134.611 4.94418C134.491 5.02689 134.413 5.13262 134.367 5.27047L133.788 7.6648H141.128L140.172 11.8287H132.791L132.253 14.0346C132.226 14.2046 132.267 14.3515 132.373 14.4803C132.474 14.6042 132.607 14.6687 132.777 14.6687L143.293 14.6824C142.998 15.9463 142.668 17.3297 142.3 18.8278H131.619C130.346 18.8278 129.321 18.3543 128.549 17.4124C127.773 16.4793 127.515 15.3995 127.782 14.1676L127.781 14.1685Z" fill="#0F47A4"/>
<path d="M144.588 18.8281C144.68 18.4697 144.919 17.4678 145.315 15.827C145.71 14.1816 146.151 12.3526 146.634 10.3303C147.121 8.31283 147.544 6.5526 147.902 5.05414C148.261 3.55598 148.449 2.76524 148.468 2.68253C148.468 2.66405 148.472 2.65042 148.481 2.64103C148.633 2.05267 148.955 1.5749 149.451 1.21619C149.943 0.848693 150.49 0.664795 151.092 0.664795C151.299 0.664795 151.91 0.664795 152.926 0.664795C153.937 0.664795 155.058 0.664795 156.29 0.664795C157.521 0.664795 158.588 0.664795 159.502 0.664795C160.413 0.664795 160.913 0.664795 161.001 0.664795C161.028 0.664795 161.042 0.664795 161.042 0.664795C161.051 0.664795 161.056 0.664795 161.056 0.664795C162.32 0.664795 163.349 1.13348 164.14 2.0757C164.921 3.01307 165.178 4.09314 164.907 5.32014C164.843 5.5913 164.682 6.26236 164.42 7.33304C164.163 8.40856 163.873 9.59861 163.561 10.9041C163.248 12.2093 162.972 13.3584 162.733 14.3418C162.494 15.3298 162.375 15.8263 162.375 15.8263C161.658 17.8256 160.366 18.8275 158.496 18.8275C158.229 18.8275 157.384 18.8275 155.968 18.8275C154.548 18.8275 152.972 18.8275 151.235 18.8275C149.497 18.8275 147.985 18.8275 146.703 18.8275C145.421 18.8275 144.713 18.8275 144.589 18.8275L144.588 18.8281ZM158.174 14.669C158.238 14.4345 158.381 13.8465 158.61 12.9043C158.84 11.962 159.093 10.9189 159.373 9.77463C159.649 8.63003 159.897 7.62358 160.108 6.75953C160.315 5.89093 160.421 5.4589 160.421 5.4589C160.448 5.28894 160.407 5.13716 160.301 5.01325C160.196 4.88903 160.058 4.8248 159.897 4.8248C159.727 4.8248 159.263 4.8248 158.504 4.8248C157.746 4.8248 156.905 4.8248 155.986 4.8248C155.067 4.8248 154.267 4.8248 153.592 4.8248C152.911 4.8248 152.544 4.8248 152.479 4.8248C152.415 5.07747 152.263 5.70734 152.02 6.70924C151.781 7.71569 151.505 8.83241 151.206 10.0549C150.908 11.2819 150.641 12.3574 150.42 13.2811C150.195 14.2049 150.08 14.669 150.08 14.669C150.269 14.669 150.779 14.669 151.611 14.669C152.443 14.669 153.357 14.669 154.359 14.669C155.356 14.669 156.225 14.669 156.96 14.669C157.7 14.669 158.105 14.669 158.174 14.669V14.669Z" fill="#0F47A4"/>
<path d="M184.479 0.66571H179.024L174.111 6.22663L171.307 0.66571H166.261L171.243 10.4824L169.262 18.8284H173.84L175.71 10.8317L184.479 0.66571Z" fill="#0F47A4"/>
<path fill-rule="evenodd" clip-rule="evenodd" d="M22.5742 11.1715H22.7223H28.6247C27.9403 12.4461 27.3822 13.7979 26.9669 15.2109H22.7223H22.5742H8.31698C10.4565 20.4813 15.6393 24.2235 21.6538 24.2235H22.5739H22.722H26.3194C26.5136 25.5887 26.8375 26.912 27.278 28.1806H22.7217H22.5736H16.0756C16.6961 31.4217 19.3055 33.9787 22.5736 34.5201V34.627H30.8776C34.7746 39.4084 40.71 42.4632 47.3591 42.4632C59.0966 42.4632 68.6118 32.948 68.6118 21.2112C68.6118 9.93966 59.8364 0.719235 48.7458 0.00484477V0.00302521H48.7182L48.6697 0H46.1164C45.5625 0 46.27 0 45.8964 0H22.7223H22.5742H0C1.46968 6.37801 7.21026 11.1718 14.0176 11.1718H22.5742V11.1715ZM47.1549 4.26271C37.6815 4.26271 30.002 11.9423 30.002 21.4154C30.002 30.8891 37.6815 38.5689 47.1549 38.5689C56.6283 38.5689 64.3082 30.8891 64.3082 21.4154C64.3082 11.9426 56.6283 4.26271 47.1549 4.26271V4.26271Z" fill="url(#paint0_linear)"/>
<path fill-rule="evenodd" clip-rule="evenodd" d="M47.153 5.77213C38.5131 5.77213 31.5098 12.7752 31.5098 21.4151C31.5098 30.0553 38.5128 37.059 47.153 37.059C55.7936 37.059 62.7966 30.0553 62.7966 21.4151C62.7966 12.7752 55.793 5.77213 47.153 5.77213Z" fill="#0F47A4"/>
<path d="M45.1677 18.0929L44.6881 19.4632C44.6572 19.5847 44.6981 19.6993 44.8054 19.7998C44.9175 19.8935 45.0608 19.9419 45.2392 19.9419H50.4002C51.7478 19.9419 52.8251 20.2994 53.6316 21.0175C54.4381 21.7355 54.6884 22.5647 54.3769 23.4978L53.4377 26.1827C53.1775 26.8592 52.6567 27.4109 51.8808 27.8375C51.1049 28.2571 50.196 28.4689 49.1599 28.4689H47.0209L46.3317 30.2485H41.2167L41.8754 28.4689H36.6274L37.7302 25.2565H48.5018C48.7927 25.2565 48.9817 25.1596 49.0684 24.9617L49.5634 23.6017C49.6246 23.4769 49.6043 23.366 49.5022 23.2651C49.395 23.1646 49.2468 23.1125 49.0684 23.1125H43.851C42.5034 23.1125 41.4261 22.7586 40.6196 22.0545C39.8131 21.3434 39.5577 20.5109 39.8589 19.5569L40.8135 16.872C41.6815 15.3735 43.1057 14.6276 45.0914 14.6276H47.4551L48.231 12.5844H53.3617L52.5703 14.6276H57.6853L56.501 17.7982H45.7349C45.5967 17.7982 45.4743 17.826 45.3774 17.8884C45.2753 17.9508 45.2038 18.0169 45.168 18.0932L45.1677 18.0929Z" fill="white"/>
<path d="M84.7601 37.7661L89.1816 30.5919V39.0525H95.9574V21.1173H88.5569L84.7601 28.6871L80.964 21.1173H73.6113V39.0525H80.3874V30.5919L84.7601 37.7661Z" fill="#FF6600"/>
<path d="M109.228 24.259C109.708 24.259 109.853 24.3826 109.853 24.6053V35.5393C109.853 35.8114 109.757 35.9104 109.18 35.9104H106.537C105.96 35.9104 105.864 35.8117 105.864 35.5393V24.6053C105.864 24.3826 106.008 24.259 106.489 24.259H109.228H109.228ZM116.917 23.4428C116.917 22.0328 115.475 21.1173 112.208 21.1173H103.557C100.29 21.1173 98.8481 22.0325 98.8481 23.4428V36.5045C98.8481 37.8652 99.9534 39.0525 103.846 39.0525H111.919C115.812 39.0525 116.917 37.8652 116.917 36.5045V23.4428H116.917Z" fill="#FF6600"/>
<path d="M119.795 39.0525H126.235V31.5568L129.983 39.0525H137.143V21.1173H129.983V28.316L126.427 21.1173H119.795V39.0525Z" fill="#FF6600"/>
<path d="M140.032 39.0525H153.295L154.497 35.7126H147.192V31.804H152.959V28.712H147.192V24.4569H154.785L153.584 21.1173H140.032V39.0525Z" fill="#FF6600"/>
<path d="M170.263 34.5007L176.943 21.1173H169.734L166.563 29.5779L163.439 21.1173H156.23L162.91 34.5007V39.0525H170.263V34.5007Z" fill="#FF6600"/>
<defs>
<linearGradient id="paint0_linear" x1="34.3059" y1="21.2318" x2="-60.8856" y2="-51.6931" gradientUnits="userSpaceOnUse">
<stop stop-color="#FF6600"/>
<stop offset="1" stop-color="#E83E00"/>
</linearGradient>
</defs>
</svg>
