<svg width="19" height="13" viewBox="0 0 19 13" fill="none" xmlns="http://www.w3.org/2000/svg">
<path fill-rule="evenodd" clip-rule="evenodd" d="M11.3302 0.26773C11.4149 0.182863 11.5154 0.11553 11.6262 0.0695888C11.7369 0.0236472 11.8556 0 11.9754 0C12.0953 0 12.214 0.0236472 12.3247 0.0695888C12.4354 0.11553 12.536 0.182863 12.6206 0.26773L18.0885 5.73556C18.1733 5.82021 18.2407 5.92078 18.2866 6.03149C18.3326 6.14221 18.3562 6.2609 18.3562 6.38077C18.3562 6.50063 18.3326 6.61932 18.2866 6.73004C18.2407 6.84075 18.1733 6.94132 18.0885 7.02597L12.6206 12.4938C12.4495 12.6649 12.2174 12.7611 11.9754 12.7611C11.7334 12.7611 11.5013 12.6649 11.3302 12.4938C11.1591 12.3227 11.063 12.0906 11.063 11.8486C11.063 11.6066 11.1591 11.3745 11.3302 11.2034L16.1547 6.38077L11.3302 1.55814C11.2454 1.47349 11.178 1.37292 11.1321 1.26221C11.0861 1.15149 11.0625 1.0328 11.0625 0.912934C11.0625 0.793066 11.0861 0.674375 11.1321 0.56366C11.178 0.452946 11.2454 0.352382 11.3302 0.26773Z" fill="white"/>
<path fill-rule="evenodd" clip-rule="evenodd" d="M0 6.38076C0 6.13907 0.0960126 5.90728 0.266916 5.73637C0.437818 5.56547 0.669612 5.46946 0.911305 5.46946H16.242C16.4837 5.46946 16.7154 5.56547 16.8864 5.73637C17.0573 5.90728 17.1533 6.13907 17.1533 6.38076C17.1533 6.62246 17.0573 6.85425 16.8864 7.02516C16.7154 7.19606 16.4837 7.29207 16.242 7.29207H0.911305C0.669612 7.29207 0.437818 7.19606 0.266916 7.02516C0.0960126 6.85425 0 6.62246 0 6.38076Z" fill="white"/>
</svg>
