<svg width="64" height="70" viewBox="0 0 64 70" fill="none" xmlns="http://www.w3.org/2000/svg">
<path d="M17.8759 17.5L10.8138 0L24.9379 7L32 0L39.0621 7L53.1862 0L46.1241 17.5H17.8759ZM46.1241 70H17.8759C-3.31034 70 0.22069 56 0.22069 56C0.22069 56 3.75172 31.5 17.8759 24.5H46.1241C60.2483 31.5 63.7793 56 63.7793 56C63.7793 56 67.3103 70 46.1241 70ZM16.1103 36.75C16.1103 38.1424 16.6684 39.4777 17.6617 40.4623C18.655 41.4469 20.0022 42 21.4069 42C22.8116 42 24.1588 41.4469 25.1521 40.4623C26.1454 39.4777 26.7034 38.1424 26.7034 36.75C26.7034 35.3576 26.1454 34.0223 25.1521 33.0377C24.1588 32.0531 22.8116 31.5 21.4069 31.5C20.0022 31.5 18.655 32.0531 17.6617 33.0377C16.6684 34.0223 16.1103 35.3576 16.1103 36.75ZM47.8897 57.75C47.8897 56.3576 47.3316 55.0223 46.3383 54.0377C45.345 53.0531 43.9978 52.5 42.5931 52.5C41.1884 52.5 39.8412 53.0531 38.8479 54.0377C37.8546 55.0223 37.2966 56.3576 37.2966 57.75C37.2966 59.1424 37.8546 60.4777 38.8479 61.4623C39.8412 62.4469 41.1884 63 42.5931 63C43.9978 63 45.345 62.4469 46.3383 61.4623C47.3316 60.4777 47.8897 59.1424 47.8897 57.75ZM47.8897 36.225L43.1228 31.5L16.1103 58.275L20.9479 63L47.8897 36.225Z" fill="#FF6600"/>
</svg>
