<svg width="14" height="14" viewBox="0 0 14 14" fill="none" xmlns="http://www.w3.org/2000/svg">
<path d="M13.2859 5.14262C13.4375 5.14262 13.5828 5.08242 13.69 4.97526C13.7972 4.86809 13.8574 4.72275 13.8574 4.57119V2.85691C13.8573 2.73947 13.8211 2.6249 13.7536 2.52879C13.6861 2.43268 13.5907 2.35969 13.4802 2.31976L7.19451 0.0340427C7.06896 -0.0113476 6.93148 -0.0113476 6.80594 0.0340427L0.52021 2.31976C0.40977 2.35969 0.314313 2.43268 0.24683 2.52879C0.179348 2.6249 0.143116 2.73947 0.143066 2.85691V4.57119C0.143066 4.72275 0.203271 4.86809 0.310434 4.97526C0.417598 5.08242 0.562943 5.14262 0.714496 5.14262H1.28593V12.5712H0.143066V13.7141H13.8574V12.5712H12.7145V5.14262H13.2859ZM1.28593 3.25691L7.00022 1.1769L12.7145 3.25691V3.99976H1.28593V3.25691ZM8.14308 12.5712H5.85736V5.14262H8.14308V12.5712ZM2.42879 5.14262H4.7145V12.5712H2.42879V5.14262ZM11.5717 12.5712H9.28594V5.14262H11.5717V12.5712Z" fill="black"/>
</svg>
