<svg width="13" height="14" viewBox="0 0 13 14" fill="none" xmlns="http://www.w3.org/2000/svg">
<path d="M9.14063 7.18118C9.57416 6.80082 9.92189 6.33038 10.1602 5.80178C10.3985 5.27319 10.5219 4.69882 10.5219 4.11765C10.5219 3.02558 10.0939 1.97824 9.332 1.20603C8.57013 0.433822 7.53682 0 6.45938 0C5.38193 0 4.34862 0.433822 3.58675 1.20603C2.82489 1.97824 2.39688 3.02558 2.39688 4.11765C2.40189 4.70201 2.53156 5.27836 2.77699 5.80715C3.02242 6.33595 3.3778 6.80467 3.81875 7.18118C2.68136 7.7032 1.71638 8.5462 1.03917 9.60939C0.361965 10.6726 0.00119588 11.911 0 13.1765C0 13.3949 0.0856024 13.6044 0.237976 13.7588C0.390349 13.9132 0.597012 14 0.8125 14C1.02799 14 1.23465 13.9132 1.38702 13.7588C1.5394 13.6044 1.625 13.3949 1.625 13.1765C1.625 11.866 2.13861 10.6092 3.05285 9.68253C3.96709 8.75588 5.20707 8.23529 6.5 8.23529C7.79293 8.23529 9.03291 8.75588 9.94715 9.68253C10.8614 10.6092 11.375 11.866 11.375 13.1765C11.375 13.3949 11.4606 13.6044 11.613 13.7588C11.7654 13.9132 11.972 14 12.1875 14C12.403 14 12.6097 13.9132 12.762 13.7588C12.9144 13.6044 13 13.3949 13 13.1765C12.9953 11.9064 12.6285 10.6648 11.9438 9.60118C11.2591 8.53752 10.2856 7.69712 9.14063 7.18118ZM6.45938 6.58824C5.97728 6.58824 5.50602 6.44334 5.10517 6.17187C4.70433 5.90039 4.39191 5.51454 4.20742 5.0631C4.02293 4.61166 3.97466 4.11491 4.06871 3.63566C4.16276 3.15641 4.39491 2.7162 4.7358 2.37068C5.07669 2.02516 5.51101 1.78986 5.98384 1.69453C6.45667 1.5992 6.94677 1.64813 7.39217 1.83512C7.83756 2.02211 8.21825 2.33878 8.48608 2.74506C8.75392 3.15135 8.89688 3.62901 8.89688 4.11765C8.89688 4.77289 8.64007 5.40129 8.18295 5.86462C7.72583 6.32794 7.10584 6.58824 6.45938 6.58824Z" fill="white"/>
</svg>
